<?xml version="1.0" encoding="UTF-8"?>
<svg id="Layer_1" xmlns="http://www.w3.org/2000/svg" version="1.1" viewBox="0 0 976.51 552.44">
  <!-- Generator: Adobe Illustrator 29.7.1, SVG Export Plug-In . SVG Version: 2.1.1 Build 8)  -->
  <defs>
    <style>
      .st0 {
        fill: #f10505;
      }

      .st1 {
        fill: #e2e2e2;
      }
    </style>
  </defs>
  <path class="st1" d="M.41,245.18V0h55.75v245.18H.41Z"/>
  <path class="st1" d="M333.16,552.19v-245.18h55.75v245.18h-55.75Z"/>
  <path class="st1" d="M447.95,552.19v-245.72h43.15l113.97,139.63,14.31,17.54c-.74-10.12-1.1-15.86-1.1-17.23v-139.94h54.4v245.72h-43.41l-113.74-139.35c-.74-.82-3.31-3.97-7.71-9.45l-6.58-8.06.55,3.69c0,2.46.09,5.06.28,7.78.18,2.73.27,4.5.27,5.32v140.06h-54.4Z"/>
  <path class="st1" d="M115.59,245.95V.24h43.15l113.97,139.63,14.31,17.54c-.74-10.12-1.1-15.86-1.1-17.23V.24h54.4v245.72h-43.41l-113.74-139.35c-.74-.82-3.31-3.97-7.71-9.44l-6.58-8.06.55,3.69c0,2.46.09,5.06.28,7.78.18,2.73.27,4.5.27,5.32v140.06h-54.4Z"/>
  <polyline class="st1" points="275.91 552.19 275.91 307.01 228.56 307.01 138.51 459.91 46.99 307.01 0 307.01 0 552.19 53.33 552.19 53.33 408.17 124.84 525.56 150.22 525.56 222.46 404.27 222.46 552.19 275.91 552.19"/>
  <path class="st1" d="M956.15,361.05c-32.41-47.41-90.12-51.6-98.07-52.05-42.28-.3-84.56-.6-126.84-.9v244.34h127.76s118.79-7.13,117.51-122.17c-.12-10.34-.78-40.59-20.36-69.22ZM857.01,505.92h-68.69v-151.49c22.73.19,45.46.37,68.19.56,4.27.28,35.3,2.88,52.72,32.27,10.52,17.75,10.88,36.5,10.94,42.92.69,71.33-63.18,75.75-63.18,75.75Z"/>
  <rect class="st0" x="400.67" y="188.59" width="57.11" height="55.28"/>
</svg>